<svg width="32" height="32" viewBox="0 0 32 32" fill="none" xmlns="http://www.w3.org/2000/svg">
<path d="M15.9998 26.6665C17.6665 26.6665 19.0834 26.0829 20.2505 24.9158C21.4176 23.7487 22.0007 22.3323 21.9998 20.6665C21.9998 18.9998 21.4163 17.5829 20.2492 16.4158C19.0821 15.2487 17.6656 14.6656 15.9998 14.6665C14.3332 14.6665 12.9163 15.2501 11.7492 16.4172C10.5821 17.5843 9.99895 19.0007 9.99984 20.6665C9.99984 22.3332 10.5834 23.7501 11.7505 24.9172C12.9176 26.0843 14.3341 26.6674 15.9998 26.6665ZM12.0998 12.9332C12.5443 12.6887 13.0167 12.4945 13.5172 12.3505C14.0176 12.2065 14.5229 12.1118 15.0332 12.0665L11.6665 5.33317H8.33317L12.0998 12.9332ZM19.8998 12.9332L23.6998 5.33317H20.3332L17.4998 10.9998L18.1332 12.2665C18.4443 12.3554 18.7443 12.4501 19.0332 12.5505C19.3221 12.6509 19.6109 12.7785 19.8998 12.9332ZM8.53317 25.0665C8.15539 24.4221 7.86073 23.7274 7.64917 22.9825C7.43761 22.2376 7.33228 21.4656 7.33317 20.6665C7.33317 19.8665 7.43895 19.0941 7.6505 18.3492C7.86206 17.6043 8.15628 16.9101 8.53317 16.2665C7.59984 16.5776 6.83317 17.1278 6.23317 17.9172C5.63317 18.7065 5.33317 19.6229 5.33317 20.6665C5.33317 21.7109 5.63317 22.6278 6.23317 23.4172C6.83317 24.2065 7.59984 24.7563 8.53317 25.0665ZM23.4665 25.0665C24.3998 24.7554 25.1665 24.2052 25.7665 23.4158C26.3665 22.6265 26.6665 21.7101 26.6665 20.6665C26.6665 19.6221 26.3665 18.7052 25.7665 17.9158C25.1665 17.1265 24.3998 16.5767 23.4665 16.2665C23.8443 16.9109 24.1389 17.6056 24.3505 18.3505C24.5621 19.0954 24.6674 19.8674 24.6665 20.6665C24.6665 21.4665 24.5607 22.239 24.3492 22.9838C24.1376 23.7287 23.8434 24.4229 23.4665 25.0665ZM15.9998 29.3332C15.1109 29.3332 14.2607 29.2052 13.4492 28.9492C12.6376 28.6932 11.8878 28.3434 11.1998 27.8998C10.9998 27.9443 10.7998 27.9723 10.5998 27.9838C10.3998 27.9954 10.1887 28.0007 9.9665 27.9998C7.94428 27.9998 6.22206 27.2887 4.79984 25.8665C3.37761 24.4443 2.6665 22.7221 2.6665 20.6998C2.6665 18.7665 3.31095 17.1109 4.59984 15.7332C5.88873 14.3554 7.47761 13.5887 9.3665 13.4332L3.99984 2.6665H13.3332L15.9998 7.99984L18.6665 2.6665H27.9998L22.6665 13.3665C24.5554 13.5443 26.1389 14.3221 27.4172 15.6998C28.6954 17.0776 29.3341 18.7332 29.3332 20.6665C29.3332 22.7109 28.6221 24.4443 27.1998 25.8665C25.7776 27.2887 24.0443 27.9998 21.9998 27.9998C21.7998 27.9998 21.5941 27.9941 21.3825 27.9825C21.1709 27.9709 20.9656 27.9434 20.7665 27.8998C20.0776 28.3443 19.3332 28.6945 18.5332 28.9505C17.7332 29.2065 16.8887 29.3341 15.9998 29.3332ZM13.5332 24.3332L14.4665 21.2998L11.9998 19.5332H15.0332L15.9998 16.3332L16.9665 19.5332H19.9998L17.5332 21.2998L18.4665 24.3332L15.9998 22.4665L13.5332 24.3332Z" fill="white"/>
</svg>
