<svg width="162" height="16" viewBox="0 0 162 16" fill="none" xmlns="http://www.w3.org/2000/svg">
<path d="M6.26081 12.192C5.15148 12.192 4.19148 11.952 3.38081 11.472C2.58081 10.9813 1.96215 10.304 1.52481 9.44C1.08748 8.56533 0.868813 7.55733 0.868813 6.416C0.868813 5.264 1.08748 4.256 1.52481 3.392C1.96215 2.51733 2.58081 1.83467 3.38081 1.344C4.19148 0.853333 5.15148 0.608 6.26081 0.608C7.57281 0.608 8.64481 0.928 9.47681 1.568C10.3088 2.208 10.8368 3.104 11.0608 4.256H9.17281C9.02348 3.60533 8.70348 3.088 8.21281 2.704C7.72215 2.32 7.06615 2.128 6.24481 2.128C5.12481 2.128 4.23948 2.512 3.58881 3.28C2.93815 4.03733 2.61281 5.08267 2.61281 6.416C2.61281 7.73867 2.93815 8.77867 3.58881 9.536C4.23948 10.2933 5.12481 10.672 6.24481 10.672C7.06615 10.672 7.72215 10.4907 8.21281 10.128C8.70348 9.76533 9.02348 9.26933 9.17281 8.64H11.0608C10.8368 9.74933 10.3088 10.6187 9.47681 11.248C8.64481 11.8773 7.57281 12.192 6.26081 12.192ZM12.8611 12V4.064H14.3811L14.5251 5.568C14.8024 5.04533 15.1864 4.63467 15.6771 4.336C16.1784 4.02667 16.7811 3.872 17.4851 3.872V5.648H17.0211C16.5517 5.648 16.1304 5.728 15.7571 5.888C15.3944 6.03733 15.1011 6.29867 14.8771 6.672C14.6637 7.03467 14.5571 7.54133 14.5571 8.192V12H12.8611ZM22.4324 12.192C21.6538 12.192 20.9604 12.0213 20.3524 11.68C19.7551 11.328 19.2858 10.8427 18.9444 10.224C18.6031 9.60533 18.4324 8.88533 18.4324 8.064C18.4324 7.232 18.5978 6.50133 18.9284 5.872C19.2698 5.24267 19.7391 4.752 20.3364 4.4C20.9444 4.048 21.6484 3.872 22.4484 3.872C23.2271 3.872 23.9044 4.048 24.4804 4.4C25.0564 4.74133 25.5044 5.2 25.8244 5.776C26.1444 6.352 26.3044 6.98667 26.3044 7.68C26.3044 7.78667 26.2991 7.904 26.2884 8.032C26.2884 8.14933 26.2831 8.28267 26.2724 8.432H20.0964C20.1498 9.2 20.4004 9.78667 20.8484 10.192C21.3071 10.5867 21.8351 10.784 22.4324 10.784C22.9124 10.784 23.3124 10.6773 23.6324 10.464C23.9631 10.24 24.2084 9.94133 24.3684 9.568H26.0644C25.8511 10.3147 25.4244 10.9387 24.7844 11.44C24.1551 11.9413 23.3711 12.192 22.4324 12.192ZM22.4324 5.264C21.8671 5.264 21.3658 5.43467 20.9284 5.776C20.4911 6.10667 20.2244 6.608 20.1284 7.28H24.6084C24.5764 6.66133 24.3578 6.17067 23.9524 5.808C23.5471 5.44533 23.0404 5.264 22.4324 5.264ZM30.7522 12.192C30.0802 12.192 29.5255 12.08 29.0882 11.856C28.6509 11.632 28.3255 11.3387 28.1122 10.976C27.8989 10.6027 27.7922 10.1973 27.7922 9.76C27.7922 8.992 28.0909 8.384 28.6882 7.936C29.2855 7.488 30.1389 7.264 31.2482 7.264H33.3282V7.12C33.3282 6.50133 33.1575 6.03733 32.8162 5.728C32.4855 5.41867 32.0535 5.264 31.5202 5.264C31.0509 5.264 30.6402 5.38133 30.2882 5.616C29.9469 5.84 29.7389 6.176 29.6642 6.624H27.9682C28.0215 6.048 28.2135 5.55733 28.5442 5.152C28.8855 4.736 29.3122 4.42133 29.8242 4.208C30.3469 3.984 30.9175 3.872 31.5362 3.872C32.6455 3.872 33.5042 4.16533 34.1122 4.752C34.7202 5.328 35.0242 6.11733 35.0242 7.12V12H33.5522L33.4082 10.64C33.1842 11.0773 32.8589 11.4453 32.4322 11.744C32.0055 12.0427 31.4455 12.192 30.7522 12.192ZM31.0882 10.816C31.5469 10.816 31.9309 10.7093 32.2402 10.496C32.5602 10.272 32.8055 9.97867 32.9762 9.616C33.1575 9.25333 33.2695 8.85333 33.3122 8.416H31.4242C30.7522 8.416 30.2722 8.53333 29.9842 8.768C29.7069 9.00267 29.5682 9.296 29.5682 9.648C29.5682 10.0107 29.7015 10.2987 29.9682 10.512C30.2455 10.7147 30.6189 10.816 31.0882 10.816ZM40.1734 12C39.3948 12 38.7761 11.8133 38.3174 11.44C37.8588 11.056 37.6294 10.3787 37.6294 9.408V5.488H36.2694V4.064H37.6294L37.8374 2.048H39.3254V4.064H41.5654V5.488H39.3254V9.408C39.3254 9.84533 39.4161 10.1493 39.5974 10.32C39.7894 10.48 40.1148 10.56 40.5734 10.56H41.4854V12H40.1734ZM46.8231 12.192C46.0444 12.192 45.3511 12.0213 44.7431 11.68C44.1457 11.328 43.6764 10.8427 43.3351 10.224C42.9937 9.60533 42.8231 8.88533 42.8231 8.064C42.8231 7.232 42.9884 6.50133 43.3191 5.872C43.6604 5.24267 44.1297 4.752 44.7271 4.4C45.3351 4.048 46.0391 3.872 46.8391 3.872C47.6177 3.872 48.2951 4.048 48.8711 4.4C49.4471 4.74133 49.8951 5.2 50.2151 5.776C50.5351 6.352 50.6951 6.98667 50.6951 7.68C50.6951 7.78667 50.6897 7.904 50.6791 8.032C50.6791 8.14933 50.6737 8.28267 50.6631 8.432H44.4871C44.5404 9.2 44.7911 9.78667 45.2391 10.192C45.6977 10.5867 46.2257 10.784 46.8231 10.784C47.3031 10.784 47.7031 10.6773 48.0231 10.464C48.3537 10.24 48.5991 9.94133 48.7591 9.568H50.4551C50.2417 10.3147 49.8151 10.9387 49.1751 11.44C48.5457 11.9413 47.7617 12.192 46.8231 12.192ZM46.8231 5.264C46.2577 5.264 45.7564 5.43467 45.3191 5.776C44.8817 6.10667 44.6151 6.608 44.5191 7.28H48.9991C48.9671 6.66133 48.7484 6.17067 48.3431 5.808C47.9377 5.44533 47.4311 5.264 46.8231 5.264ZM61.4141 12.192C60.3581 12.192 59.4354 11.952 58.6461 11.472C57.8567 10.992 57.2434 10.32 56.8061 9.456C56.3687 8.592 56.1501 7.584 56.1501 6.432C56.1501 5.29067 56.3741 4.28267 56.8221 3.408C57.2701 2.53333 57.9047 1.85067 58.7261 1.36C59.5581 0.858666 60.5394 0.608 61.6701 0.608C62.9501 0.608 64.0167 0.917333 64.8701 1.536C65.7234 2.15467 66.2781 3.008 66.5341 4.096H64.6141C64.4434 3.49867 64.1074 3.02933 63.6061 2.688C63.1047 2.34667 62.4594 2.176 61.6701 2.176C60.4967 2.176 59.5741 2.55467 58.9021 3.312C58.2301 4.06933 57.8941 5.11467 57.8941 6.448C57.8941 7.78133 58.2247 8.82133 58.8861 9.568C59.5474 10.3147 60.4274 10.688 61.5261 10.688C62.6354 10.688 63.4674 10.3733 64.0221 9.744C64.5874 9.11467 64.9181 8.27733 65.0141 7.232H61.9741V5.92H66.7261V12H65.1741L65.0301 10.352C64.6567 10.9387 64.1874 11.392 63.6221 11.712C63.0567 12.032 62.3207 12.192 61.4141 12.192ZM68.7204 12V4.064H70.2404L70.3844 5.568C70.6618 5.04533 71.0458 4.63467 71.5364 4.336C72.0378 4.02667 72.6404 3.872 73.3444 3.872V5.648H72.8804C72.4111 5.648 71.9898 5.728 71.6164 5.888C71.2538 6.03733 70.9604 6.29867 70.7364 6.672C70.5231 7.03467 70.4164 7.54133 70.4164 8.192V12H68.7204ZM78.2918 12.192C77.5345 12.192 76.8518 12.0213 76.2438 11.68C75.6465 11.328 75.1718 10.8427 74.8198 10.224C74.4678 9.59467 74.2918 8.864 74.2918 8.032C74.2918 7.2 74.4678 6.47467 74.8198 5.856C75.1825 5.22667 75.6678 4.74133 76.2758 4.4C76.8838 4.048 77.5611 3.872 78.3078 3.872C79.0651 3.872 79.7425 4.048 80.3398 4.4C80.9478 4.74133 81.4278 5.22667 81.7798 5.856C82.1425 6.47467 82.3238 7.2 82.3238 8.032C82.3238 8.864 82.1425 9.59467 81.7798 10.224C81.4278 10.8427 80.9478 11.328 80.3398 11.68C79.7318 12.0213 79.0491 12.192 78.2918 12.192ZM78.2918 10.736C78.6971 10.736 79.0705 10.6347 79.4118 10.432C79.7638 10.2293 80.0465 9.93067 80.2598 9.536C80.4731 9.13067 80.5798 8.62933 80.5798 8.032C80.5798 7.43467 80.4731 6.93867 80.2598 6.544C80.0571 6.13867 79.7798 5.83467 79.4278 5.632C79.0865 5.42933 78.7131 5.328 78.3078 5.328C77.9025 5.328 77.5238 5.42933 77.1718 5.632C76.8305 5.83467 76.5531 6.13867 76.3398 6.544C76.1265 6.93867 76.0198 7.43467 76.0198 8.032C76.0198 8.62933 76.1265 9.13067 76.3398 9.536C76.5531 9.93067 76.8305 10.2293 77.1718 10.432C77.5131 10.6347 77.8865 10.736 78.2918 10.736ZM87.0859 12.192C86.1259 12.192 85.3686 11.8933 84.8139 11.296C84.2699 10.6987 83.9979 9.808 83.9979 8.624V4.064H85.6939V8.448C85.6939 9.984 86.3233 10.752 87.5819 10.752C88.2113 10.752 88.7286 10.528 89.1339 10.08C89.5393 9.632 89.7419 8.992 89.7419 8.16V4.064H91.4379V12H89.9339L89.8059 10.608C89.5606 11.0987 89.1979 11.488 88.7179 11.776C88.2486 12.0533 87.7046 12.192 87.0859 12.192ZM93.5954 15.52V4.064H95.1154L95.2914 5.296C95.5474 4.92267 95.8994 4.592 96.3474 4.304C96.7954 4.016 97.3714 3.872 98.0754 3.872C98.8434 3.872 99.5208 4.05333 100.107 4.416C100.694 4.77867 101.153 5.27467 101.483 5.904C101.825 6.53333 101.995 7.248 101.995 8.048C101.995 8.848 101.825 9.56267 101.483 10.192C101.153 10.8107 100.694 11.3013 100.107 11.664C99.5208 12.016 98.8381 12.192 98.0594 12.192C97.4408 12.192 96.8914 12.0693 96.4114 11.824C95.9421 11.5787 95.5688 11.232 95.2914 10.784V15.52H93.5954ZM97.7714 10.72C98.4968 10.72 99.0941 10.4747 99.5634 9.984C100.033 9.48267 100.267 8.832 100.267 8.032C100.267 7.50933 100.161 7.04533 99.9474 6.64C99.7341 6.23467 99.4408 5.92 99.0674 5.696C98.6941 5.46133 98.2621 5.344 97.7714 5.344C97.0461 5.344 96.4488 5.59467 95.9794 6.096C95.5208 6.59733 95.2914 7.24267 95.2914 8.032C95.2914 8.832 95.5208 9.48267 95.9794 9.984C96.4488 10.4747 97.0461 10.72 97.7714 10.72ZM107.925 12V0.799999H109.621V12H107.925ZM111.83 12V4.064H113.334L113.462 5.456C113.707 4.96533 114.064 4.58133 114.534 4.304C115.014 4.016 115.563 3.872 116.182 3.872C117.142 3.872 117.894 4.17067 118.438 4.768C118.992 5.36533 119.27 6.256 119.27 7.44V12H117.59V7.616C117.59 6.08 116.96 5.312 115.702 5.312C115.072 5.312 114.55 5.536 114.134 5.984C113.728 6.432 113.526 7.072 113.526 7.904V12H111.83ZM124.435 12.192C123.433 12.192 122.606 11.9467 121.955 11.456C121.305 10.9653 120.931 10.3147 120.835 9.504H122.547C122.633 9.86667 122.835 10.1813 123.155 10.448C123.475 10.704 123.897 10.832 124.419 10.832C124.931 10.832 125.305 10.7253 125.539 10.512C125.774 10.2987 125.891 10.0533 125.891 9.776C125.891 9.37067 125.726 9.09867 125.395 8.96C125.075 8.81067 124.627 8.67733 124.051 8.56C123.603 8.464 123.155 8.336 122.707 8.176C122.27 8.016 121.902 7.792 121.603 7.504C121.315 7.20533 121.171 6.80533 121.171 6.304C121.171 5.61067 121.438 5.03467 121.971 4.576C122.505 4.10667 123.251 3.872 124.211 3.872C125.097 3.872 125.811 4.08533 126.355 4.512C126.91 4.93867 127.235 5.54133 127.331 6.32H125.699C125.646 5.97867 125.486 5.712 125.219 5.52C124.963 5.328 124.617 5.232 124.179 5.232C123.753 5.232 123.422 5.32267 123.187 5.504C122.953 5.67467 122.835 5.89867 122.835 6.176C122.835 6.45333 122.995 6.672 123.315 6.832C123.646 6.992 124.078 7.136 124.611 7.264C125.145 7.38133 125.635 7.52 126.083 7.68C126.542 7.82933 126.91 8.05333 127.187 8.352C127.465 8.65067 127.603 9.088 127.603 9.664C127.614 10.3893 127.331 10.992 126.755 11.472C126.19 11.952 125.417 12.192 124.435 12.192ZM132.486 12C131.707 12 131.089 11.8133 130.63 11.44C130.171 11.056 129.942 10.3787 129.942 9.408V5.488H128.582V4.064H129.942L130.15 2.048H131.638V4.064H133.878V5.488H131.638V9.408C131.638 9.84533 131.729 10.1493 131.91 10.32C132.102 10.48 132.427 10.56 132.886 10.56H133.798V12H132.486ZM139.136 12.192C138.357 12.192 137.664 12.0213 137.056 11.68C136.458 11.328 135.989 10.8427 135.648 10.224C135.306 9.60533 135.136 8.88533 135.136 8.064C135.136 7.232 135.301 6.50133 135.632 5.872C135.973 5.24267 136.442 4.752 137.04 4.4C137.648 4.048 138.352 3.872 139.152 3.872C139.93 3.872 140.608 4.048 141.184 4.4C141.76 4.74133 142.208 5.2 142.528 5.776C142.848 6.352 143.008 6.98667 143.008 7.68C143.008 7.78667 143.002 7.904 142.992 8.032C142.992 8.14933 142.986 8.28267 142.976 8.432H136.8C136.853 9.2 137.104 9.78667 137.552 10.192C138.01 10.5867 138.538 10.784 139.136 10.784C139.616 10.784 140.016 10.6773 140.336 10.464C140.666 10.24 140.912 9.94133 141.072 9.568H142.768C142.554 10.3147 142.128 10.9387 141.488 11.44C140.858 11.9413 140.074 12.192 139.136 12.192ZM139.136 5.264C138.57 5.264 138.069 5.43467 137.632 5.776C137.194 6.10667 136.928 6.608 136.832 7.28H141.312C141.28 6.66133 141.061 6.17067 140.656 5.808C140.25 5.44533 139.744 5.264 139.136 5.264ZM147.455 12.192C146.783 12.192 146.229 12.08 145.791 11.856C145.354 11.632 145.029 11.3387 144.815 10.976C144.602 10.6027 144.495 10.1973 144.495 9.76C144.495 8.992 144.794 8.384 145.391 7.936C145.989 7.488 146.842 7.264 147.951 7.264H150.031V7.12C150.031 6.50133 149.861 6.03733 149.519 5.728C149.189 5.41867 148.757 5.264 148.223 5.264C147.754 5.264 147.343 5.38133 146.991 5.616C146.65 5.84 146.442 6.176 146.367 6.624H144.671C144.725 6.048 144.917 5.55733 145.247 5.152C145.589 4.736 146.015 4.42133 146.527 4.208C147.05 3.984 147.621 3.872 148.239 3.872C149.349 3.872 150.207 4.16533 150.815 4.752C151.423 5.328 151.727 6.11733 151.727 7.12V12H150.255L150.111 10.64C149.887 11.0773 149.562 11.4453 149.135 11.744C148.709 12.0427 148.149 12.192 147.455 12.192ZM147.791 10.816C148.25 10.816 148.634 10.7093 148.943 10.496C149.263 10.272 149.509 9.97867 149.679 9.616C149.861 9.25333 149.973 8.85333 150.015 8.416H148.127C147.455 8.416 146.975 8.53333 146.687 8.768C146.41 9.00267 146.271 9.296 146.271 9.648C146.271 10.0107 146.405 10.2987 146.671 10.512C146.949 10.7147 147.322 10.816 147.791 10.816ZM157.321 12.192C156.553 12.192 155.875 12.0107 155.289 11.648C154.702 11.2853 154.243 10.7893 153.913 10.16C153.582 9.53067 153.417 8.816 153.417 8.016C153.417 7.216 153.582 6.50667 153.913 5.888C154.243 5.25867 154.702 4.768 155.289 4.416C155.886 4.05333 156.569 3.872 157.337 3.872C157.966 3.872 158.515 3.99467 158.985 4.24C159.465 4.48533 159.838 4.832 160.105 5.28V0.48H161.801V12H160.281L160.105 10.768C159.849 11.1413 159.497 11.472 159.049 11.76C158.601 12.048 158.025 12.192 157.321 12.192ZM157.625 10.72C158.35 10.72 158.942 10.4693 159.401 9.968C159.87 9.46667 160.105 8.82133 160.105 8.032C160.105 7.232 159.87 6.58667 159.401 6.096C158.942 5.59467 158.35 5.344 157.625 5.344C156.899 5.344 156.302 5.59467 155.833 6.096C155.363 6.58667 155.129 7.232 155.129 8.032C155.129 8.55467 155.235 9.01867 155.449 9.424C155.662 9.82933 155.955 10.1493 156.329 10.384C156.713 10.608 157.145 10.72 157.625 10.72Z" fill="url(#paint0_linear_1354_678)"/>
<defs>
<linearGradient id="paint0_linear_1354_678" x1="-70.1307" y1="19" x2="191.729" y2="5.47355" gradientUnits="userSpaceOnUse">
<stop stop-color="#FC8C02"/>
<stop offset="1" stop-color="#5618FF"/>
</linearGradient>
</defs>
</svg>
