<svg width="100" height="100" viewBox="0 0 100 100" fill="none" xmlns="http://www.w3.org/2000/svg">
<g id="fluent:tasks-app-24-filled">
<path id="Vector" d="M73.9584 8.33789C76.3339 8.3376 78.621 9.23912 80.3574 10.8603C82.0938 12.4814 83.15 14.7013 83.3126 17.0712L83.3334 17.7087V59.9087C82.8334 60.2421 82.3542 60.6337 81.9126 61.0754L67.7084 75.2754L63.9251 71.4837C62.2614 69.8158 60.0291 68.838 57.6751 68.7462H67.7084C68.5372 68.7462 69.3321 68.417 69.9181 67.8309C70.5042 67.2449 70.8334 66.45 70.8334 65.6212C70.8334 64.7924 70.5042 63.9976 69.9181 63.4115C69.3321 62.8255 68.5372 62.4962 67.7084 62.4962H46.8584C46.0296 62.4962 45.2348 62.8255 44.6487 63.4115C44.0627 63.9976 43.7334 64.7924 43.7334 65.6212C43.7334 66.45 44.0627 67.2449 44.6487 67.8309C45.2348 68.417 46.0296 68.7462 46.8584 68.7462H56.9126C55.0931 68.8208 53.3348 69.4235 51.8523 70.481C50.3698 71.5384 49.2274 73.0047 48.5645 74.7007C47.9016 76.3968 47.7471 78.2491 48.1196 80.0316C48.4922 81.814 49.3759 83.4494 50.6626 84.7379L57.5709 91.6671H26.0417C23.6662 91.6674 21.3792 90.7658 19.6428 89.1447C17.9064 87.5235 16.8502 85.3037 16.6876 82.9337L16.6667 82.2921V17.7129C16.6665 15.3374 17.568 13.0503 19.1891 11.3139C20.8103 9.57753 23.0301 8.52132 25.4001 8.35872L26.0417 8.33789H73.9584ZM37.5001 32.2962C37.5001 31.1912 37.0611 30.1313 36.2797 29.3499C35.4983 28.5685 34.4385 28.1296 33.3334 28.1296C32.2283 28.1296 31.1685 28.5685 30.3871 29.3499C29.6057 30.1313 29.1667 31.1912 29.1667 32.2962C29.1667 33.4013 29.6057 34.4611 30.3871 35.2425C31.1685 36.0239 32.2283 36.4629 33.3334 36.4629C34.4385 36.4629 35.4983 36.0239 36.2797 35.2425C37.0611 34.4611 37.5001 33.4013 37.5001 32.2962ZM46.8584 29.1671C46.0296 29.1671 45.2348 29.4963 44.6487 30.0823C44.0627 30.6684 43.7334 31.4633 43.7334 32.2921C43.7334 33.1209 44.0627 33.9157 44.6487 34.5018C45.2348 35.0878 46.0296 35.4171 46.8584 35.4171H67.7084C68.5372 35.4171 69.3321 35.0878 69.9181 34.5018C70.5042 33.9157 70.8334 33.1209 70.8334 32.2921C70.8334 31.4633 70.5042 30.6684 69.9181 30.0823C69.3321 29.4963 68.5372 29.1671 67.7084 29.1671H46.8584ZM43.7334 48.9587C43.7334 50.6837 45.1334 52.0837 46.8584 52.0837H67.7084C68.1188 52.0837 68.5252 52.0029 68.9043 51.8458C69.2834 51.6888 69.6279 51.4586 69.9181 51.1684C70.2083 50.8783 70.4385 50.5338 70.5955 50.1546C70.7526 49.7755 70.8334 49.3691 70.8334 48.9587C70.8334 48.5483 70.7526 48.142 70.5955 47.7628C70.4385 47.3837 70.2083 47.0392 69.9181 46.749C69.6279 46.4588 69.2834 46.2286 68.9043 46.0716C68.5252 45.9146 68.1188 45.8337 67.7084 45.8337H46.8584C46.0296 45.8337 45.2348 46.163 44.6487 46.749C44.0627 47.3351 43.7334 48.1299 43.7334 48.9587ZM37.5001 48.9587C37.5001 47.8537 37.0611 46.7938 36.2797 46.0124C35.4983 45.231 34.4385 44.7921 33.3334 44.7921C32.2283 44.7921 31.1685 45.231 30.3871 46.0124C29.6057 46.7938 29.1667 47.8537 29.1667 48.9587C29.1667 50.0638 29.6057 51.1236 30.3871 51.905C31.1685 52.6864 32.2283 53.1254 33.3334 53.1254C34.4385 53.1254 35.4983 52.6864 36.2797 51.905C37.0611 51.1236 37.5001 50.0638 37.5001 48.9587ZM37.5001 65.6171C37.5001 64.512 37.0611 63.4522 36.2797 62.6708C35.4983 61.8894 34.4385 61.4504 33.3334 61.4504C32.2283 61.4504 31.1685 61.8894 30.3871 62.6708C29.6057 63.4522 29.1667 64.512 29.1667 65.6171C29.1667 66.7221 29.6057 67.7819 30.3871 68.5633C31.1685 69.3447 32.2283 69.7837 33.3334 69.7837C34.4385 69.7837 35.4983 69.3447 36.2797 68.5633C37.0611 67.7819 37.5001 66.7221 37.5001 65.6171ZM67.7084 84.1212L86.3334 65.4962C86.6218 65.1979 86.9668 64.96 87.3481 64.7964C87.7294 64.6328 88.1395 64.5468 88.5545 64.5434C88.9694 64.54 89.3809 64.6192 89.7648 64.7765C90.1488 64.9338 90.4976 65.1661 90.7909 65.4596C91.0842 65.7532 91.3161 66.1022 91.473 66.4863C91.6299 66.8704 91.7088 67.282 91.705 67.6969C91.7012 68.1118 91.6148 68.5218 91.4509 68.903C91.2869 69.2842 91.0487 69.6289 90.7501 69.9171L69.9167 90.7504C69.3308 91.3356 68.5365 91.6643 67.7084 91.6643C66.8803 91.6643 66.086 91.3356 65.5001 90.7504L55.0834 80.3296C54.5314 79.7372 54.2309 78.9536 54.2452 78.144C54.2595 77.3345 54.5874 76.562 55.16 75.9895C55.7325 75.4169 56.505 75.0889 57.3146 75.0747C58.1242 75.0604 58.9077 75.3609 59.5001 75.9129L67.7084 84.1212Z" fill="white"/>
</g>
</svg>
