<svg width="100" height="100" viewBox="0 0 100 100" fill="none" xmlns="http://www.w3.org/2000/svg">
<g id="material-symbols:chat">
<path id="Vector" d="M24.9999 58.334H58.3333V50.0007H24.9999V58.334ZM24.9999 45.834H74.9999V37.5007H24.9999V45.834ZM24.9999 33.334H74.9999V25.0007H24.9999V33.334ZM8.33325 91.6673V16.6673C8.33325 14.3757 9.14992 12.4132 10.7833 10.7798C12.4166 9.14649 14.3777 8.33121 16.6666 8.33399H83.3333C85.6249 8.33399 87.5874 9.15066 89.2208 10.784C90.8541 12.4173 91.6694 14.3784 91.6666 16.6673V66.6673C91.6666 68.959 90.8499 70.9215 89.2166 72.5548C87.5833 74.1882 85.6221 75.0034 83.3333 75.0007H24.9999L8.33325 91.6673Z" fill="white"/>
</g>
</svg>
