<svg width="100" height="100" viewBox="0 0 100 100" fill="none" xmlns="http://www.w3.org/2000/svg">
<g id="cryptocurrency:pay" clip-path="url(#clip0_1230_1087)">
<path id="Vector" d="M50 100C22.3844 100 0 77.6156 0 50C0 22.3844 22.3844 0 50 0C77.6156 0 100 22.3844 100 50C100 77.6156 77.6156 100 50 100ZM84.0938 49.05C83.9223 48.703 83.6954 48.3863 83.4219 48.1125C77.4781 41.3812 65.3813 28.125 65.3813 28.125L50.0156 44.9313L34.4531 28.2844C34.4531 28.2844 22.2156 41.6562 16.2188 48.4594C15.4375 49.2281 15.4375 50.6156 16.1375 51.4344C19.2531 54.9844 34.5562 71.8594 34.5562 71.8594L49.9938 54.9406L65.325 71.875L83.8156 51.4188C83.8156 51.4188 84.2062 51.0125 84.2906 50.7406C84.4719 50.1781 84.3406 49.5656 84.0938 49.05ZM24.7438 50.9219C24.2438 50.3312 24.4125 49.4031 24.8781 48.8438C26.8344 46.6156 34.6625 38.2188 34.6625 38.2188L45.5687 49.7969L34.6438 61.7469C34.6438 61.7469 27.9563 54.6094 24.7438 50.9219ZM74.7063 51.3156C74.476 51.7104 74.2081 52.0819 73.9062 52.425L65.4375 61.6281L54.5 50L65.2625 38.2031C65.2625 38.2031 71.4625 44.625 74.3031 48.0781C74.5438 48.3781 74.8281 48.6625 74.95 49.0438C75.2094 49.7906 75.0438 50.6219 74.7031 51.3125L74.7063 51.3156Z" fill="white"/>
</g>
<defs>
<clipPath id="clip0_1230_1087">
<rect width="100" height="100" fill="white"/>
</clipPath>
</defs>
</svg>
