<svg width="165" height="32" viewBox="0 0 165 32" fill="none" xmlns="http://www.w3.org/2000/svg">
<path d="M12.004 7.99991C12.004 6.9401 12.425 5.9237 13.1744 5.17431C13.9238 4.42491 14.9402 4.00391 16 4.00391C17.0598 4.00391 18.0762 4.42491 18.8256 5.17431C19.575 5.9237 19.996 6.9401 19.996 7.99991C19.996 9.05971 19.575 10.0761 18.8256 10.8255C18.0762 11.5749 17.0598 11.9959 16 11.9959C14.9402 11.9959 13.9238 11.5749 13.1744 10.8255C12.425 10.0761 12.004 9.05971 12.004 7.99991ZM16 6.00391C15.7379 6.00391 15.4783 6.05553 15.2362 6.15584C14.994 6.25615 14.774 6.40318 14.5886 6.58852C14.4033 6.77387 14.2562 6.9939 14.1559 7.23607C14.0556 7.47824 14.004 7.73779 14.004 7.99991C14.004 8.26202 14.0556 8.52158 14.1559 8.76374C14.2562 9.00591 14.4033 9.22595 14.5886 9.41129C14.774 9.59664 14.994 9.74366 15.2362 9.84397C15.4783 9.94428 15.7379 9.99591 16 9.99591C16.5294 9.99591 17.0371 9.78561 17.4114 9.41129C17.7857 9.03697 17.996 8.52928 17.996 7.99991C17.996 7.47053 17.7857 6.96284 17.4114 6.58852C17.0371 6.2142 16.5294 6.00391 16 6.00391ZM22 8.99991C22 8.60594 22.0776 8.21583 22.2284 7.85186C22.3791 7.48788 22.6001 7.15716 22.8787 6.87859C23.1573 6.60001 23.488 6.37903 23.8519 6.22827C24.2159 6.0775 24.606 5.99991 25 5.99991C25.394 5.99991 25.7841 6.0775 26.1481 6.22827C26.512 6.37903 26.8427 6.60001 27.1213 6.87859C27.3999 7.15716 27.6209 7.48788 27.7716 7.85186C27.9224 8.21583 28 8.60594 28 8.99991C28 9.79556 27.6839 10.5586 27.1213 11.1212C26.5587 11.6838 25.7956 11.9999 25 11.9999C24.2044 11.9999 23.4413 11.6838 22.8787 11.1212C22.3161 10.5586 22 9.79556 22 8.99991ZM25 7.99991C24.7348 7.99991 24.4804 8.10526 24.2929 8.2928C24.1054 8.48034 24 8.73469 24 8.99991C24 9.26512 24.1054 9.51948 24.2929 9.70701C24.4804 9.89455 24.7348 9.99991 25 9.99991C25.2652 9.99991 25.5196 9.89455 25.7071 9.70701C25.8946 9.51948 26 9.26512 26 8.99991C26 8.73469 25.8946 8.48034 25.7071 8.2928C25.5196 8.10526 25.2652 7.99991 25 7.99991ZM7 5.99991C6.20435 5.99991 5.44129 6.31598 4.87868 6.87859C4.31607 7.4412 4 8.20426 4 8.99991C4 9.79556 4.31607 10.5586 4.87868 11.1212C5.44129 11.6838 6.20435 11.9999 7 11.9999C7.79565 11.9999 8.55871 11.6838 9.12132 11.1212C9.68393 10.5586 10 9.79556 10 8.99991C10 8.20426 9.68393 7.4412 9.12132 6.87859C8.55871 6.31598 7.79565 5.99991 7 5.99991ZM6 8.99991C6 8.73469 6.10536 8.48034 6.29289 8.2928C6.48043 8.10526 6.73478 7.99991 7 7.99991C7.26522 7.99991 7.51957 8.10526 7.70711 8.2928C7.89464 8.48034 8 8.73469 8 8.99991C8 9.26512 7.89464 9.51948 7.70711 9.70701C7.51957 9.89455 7.26522 9.99991 7 9.99991C6.73478 9.99991 6.48043 9.89455 6.29289 9.70701C6.10536 9.51948 6 9.26512 6 8.99991ZM8.536 13.9999C8.18401 14.6076 7.99909 15.2976 8 15.9999H4V20.9999C3.99984 21.4974 4.12339 21.9871 4.35953 22.4249C4.59568 22.8628 4.937 23.2351 5.35278 23.5082C5.76855 23.7814 6.24573 23.9468 6.74135 23.9897C7.23697 24.0326 7.73548 23.9516 8.192 23.7539C8.34 24.4159 8.572 25.0479 8.872 25.6379C8.11293 25.9444 7.29022 26.0598 6.47611 25.974C5.66201 25.8883 4.88142 25.6039 4.20288 25.146C3.52435 24.688 2.96864 24.0705 2.58455 23.3476C2.20045 22.6247 1.99973 21.8185 2 20.9999V15.9999C2 15.4695 2.21071 14.9608 2.58579 14.5857C2.96086 14.2106 3.46957 13.9999 4 13.9999H8.536ZM23.128 25.6379C23.8871 25.9444 24.7098 26.0598 25.5239 25.974C26.338 25.8883 27.1186 25.6039 27.7971 25.146C28.4756 24.688 29.0314 24.0705 29.4155 23.3476C29.7995 22.6247 30.0003 21.8185 30 20.9999V15.9999C30 15.4695 29.7893 14.9608 29.4142 14.5857C29.0391 14.2106 28.5304 13.9999 28 13.9999H23.464C23.804 14.5879 24 15.2699 24 15.9999H28V20.9999C28.0002 21.4974 27.8766 21.9871 27.6405 22.4249C27.4043 22.8628 27.063 23.2351 26.6472 23.5082C26.2314 23.7814 25.7543 23.9468 25.2586 23.9897C24.763 24.0326 24.2645 23.9516 23.808 23.7539C23.658 24.4159 23.428 25.0479 23.128 25.6379ZM12 13.9979C11.4696 13.9979 10.9609 14.2086 10.5858 14.5837C10.2107 14.9588 10 15.4675 10 15.9979V21.9999C10 23.5912 10.6321 25.1173 11.7574 26.2425C12.8826 27.3678 14.4087 27.9999 16 27.9999C17.5913 27.9999 19.1174 27.3678 20.2426 26.2425C21.3679 25.1173 22 23.5912 22 21.9999V15.9999C22 15.4695 21.7893 14.9608 21.4142 14.5857C21.0391 14.2106 20.5304 13.9999 20 13.9999H12V13.9979ZM12 15.9979H20V21.9999C20 23.0608 19.5786 24.0782 18.8284 24.8283C18.0783 25.5785 17.0609 25.9999 16 25.9999C14.9391 25.9999 13.9217 25.5785 13.1716 24.8283C12.4214 24.0782 12 23.0608 12 21.9999V15.9999V15.9979Z" fill="white"/>
<path d="M51.7867 30V5.44H43.5067V2H64.2667V5.44H56.0267V30H51.7867ZM73.7608 30.48C71.8141 30.48 70.0808 30.0533 68.5608 29.2C67.0674 28.32 65.8941 27.1067 65.0408 25.56C64.1874 24.0133 63.7608 22.2133 63.7608 20.16C63.7608 18.08 64.1741 16.2533 65.0008 14.68C65.8541 13.1067 67.0274 11.88 68.5208 11C70.0408 10.12 71.8008 9.68 73.8008 9.68C75.7474 9.68 77.4408 10.12 78.8808 11C80.3208 11.8533 81.4408 13 82.2408 14.44C83.0408 15.88 83.4408 17.4667 83.4408 19.2C83.4408 19.4667 83.4274 19.76 83.4008 20.08C83.4008 20.3733 83.3874 20.7067 83.3608 21.08H67.9208C68.0541 23 68.6808 24.4667 69.8008 25.48C70.9474 26.4667 72.2674 26.96 73.7608 26.96C74.9608 26.96 75.9608 26.6933 76.7608 26.16C77.5874 25.6 78.2008 24.8533 78.6008 23.92H82.8408C82.3074 25.7867 81.2408 27.3467 79.6408 28.6C78.0674 29.8533 76.1074 30.48 73.7608 30.48ZM73.7608 13.16C72.3474 13.16 71.0941 13.5867 70.0008 14.44C68.9074 15.2667 68.2408 16.52 68.0008 18.2H79.2008C79.1208 16.6533 78.5741 15.4267 77.5608 14.52C76.5474 13.6133 75.2808 13.16 73.7608 13.16ZM94.5602 30.48C92.8802 30.48 91.4935 30.2 90.4002 29.64C89.3068 29.08 88.4935 28.3467 87.9602 27.44C87.4268 26.5067 87.1602 25.4933 87.1602 24.4C87.1602 22.48 87.9068 20.96 89.4002 19.84C90.8935 18.72 93.0268 18.16 95.8002 18.16H101V17.8C101 16.2533 100.573 15.0933 99.7202 14.32C98.8935 13.5467 97.8135 13.16 96.4802 13.16C95.3068 13.16 94.2802 13.4533 93.4002 14.04C92.5468 14.6 92.0268 15.44 91.8402 16.56H87.6002C87.7335 15.12 88.2135 13.8933 89.0402 12.88C89.8935 11.84 90.9602 11.0533 92.2402 10.52C93.5468 9.96 94.9735 9.68 96.5202 9.68C99.2935 9.68 101.44 10.4133 102.96 11.88C104.48 13.32 105.24 15.2933 105.24 17.8V30H101.56L101.2 26.6C100.64 27.6933 99.8268 28.6133 98.7602 29.36C97.6935 30.1067 96.2935 30.48 94.5602 30.48ZM95.4002 27.04C96.5468 27.04 97.5068 26.7733 98.2802 26.24C99.0802 25.68 99.6935 24.9467 100.12 24.04C100.573 23.1333 100.853 22.1333 100.96 21.04H96.2402C94.5602 21.04 93.3602 21.3333 92.6402 21.92C91.9468 22.5067 91.6002 23.24 91.6002 24.12C91.6002 25.0267 91.9335 25.7467 92.6002 26.28C93.2935 26.7867 94.2268 27.04 95.4002 27.04ZM110.184 30V10.16H113.944L114.304 12.96C114.944 11.9467 115.784 11.1467 116.824 10.56C117.891 9.97333 119.117 9.68 120.504 9.68C123.651 9.68 125.837 10.92 127.064 13.4C127.784 12.2533 128.744 11.3467 129.944 10.68C131.171 10.0133 132.491 9.68 133.904 9.68C136.384 9.68 138.331 10.4267 139.744 11.92C141.157 13.4133 141.864 15.64 141.864 18.6V30H137.624V19.04C137.624 15.2 136.157 13.28 133.224 13.28C131.731 13.28 130.504 13.84 129.544 14.96C128.611 16.08 128.144 17.68 128.144 19.76V30H123.904V19.04C123.904 15.2 122.424 13.28 119.464 13.28C117.997 13.28 116.784 13.84 115.824 14.96C114.891 16.08 114.424 17.68 114.424 19.76V30H110.184ZM154.745 30.48C152.238 30.48 150.171 29.8667 148.545 28.64C146.918 27.4133 145.985 25.7867 145.745 23.76H150.025C150.238 24.6667 150.745 25.4533 151.545 26.12C152.345 26.76 153.398 27.08 154.705 27.08C155.985 27.08 156.918 26.8133 157.505 26.28C158.091 25.7467 158.385 25.1333 158.385 24.44C158.385 23.4267 157.971 22.7467 157.145 22.4C156.345 22.0267 155.225 21.6933 153.785 21.4C152.665 21.16 151.545 20.84 150.425 20.44C149.331 20.04 148.411 19.48 147.665 18.76C146.945 18.0133 146.585 17.0133 146.585 15.76C146.585 14.0267 147.251 12.5867 148.585 11.44C149.918 10.2667 151.785 9.68 154.185 9.68C156.398 9.68 158.185 10.2133 159.545 11.28C160.931 12.3467 161.745 13.8533 161.985 15.8H157.905C157.771 14.9467 157.371 14.28 156.705 13.8C156.065 13.32 155.198 13.08 154.105 13.08C153.038 13.08 152.211 13.3067 151.625 13.76C151.038 14.1867 150.745 14.7467 150.745 15.44C150.745 16.1333 151.145 16.68 151.945 17.08C152.771 17.48 153.851 17.84 155.185 18.16C156.518 18.4533 157.745 18.8 158.865 19.2C160.011 19.5733 160.931 20.1333 161.625 20.88C162.318 21.6267 162.665 22.72 162.665 24.16C162.691 25.9733 161.985 27.48 160.545 28.68C159.131 29.88 157.198 30.48 154.745 30.48Z" fill="white"/>
</svg>
